<svg xmlns="http://www.w3.org/2000/svg" width="512" height="512" viewBox="0 0 512 512">
  <defs>
    <linearGradient id="bg" x1="0" y1="0" x2="0" y2="1">
      <stop offset="0" stop-color="#3a9c63"/>
      <stop offset="1" stop-color="#1c5435"/>
    </linearGradient>
    <linearGradient id="strand" x1="0" y1="0" x2="0" y2="1">
      <stop offset="0" stop-color="#ffffff"/>
      <stop offset="1" stop-color="#d6efdf"/>
    </linearGradient>
    <linearGradient id="rung" x1="0" y1="0" x2="1" y2="0">
      <stop offset="0" stop-color="#cdebd8"/>
      <stop offset="1" stop-color="#ffffff"/>
    </linearGradient>
  </defs>
  <rect width="512" height="512" fill="url(#bg)"/>
  <g>
    <line x1="288.9" y1="132.3" x2="223.1" y2="132.3" stroke="url(#rung)" stroke-width="8" stroke-linecap="round" opacity="0.66"/>
    <line x1="312.3" y1="152.9" x2="199.7" y2="152.9" stroke="url(#rung)" stroke-width="8" stroke-linecap="round" opacity="0.88"/>
    <line x1="263.0" y1="173.5" x2="249.0" y2="173.5" stroke="url(#rung)" stroke-width="8" stroke-linecap="round" opacity="0.42"/>
    <line x1="204.6" y1="194.2" x2="307.4" y2="194.2" stroke="url(#rung)" stroke-width="8" stroke-linecap="round" opacity="0.84"/>
    <line x1="212.6" y1="214.8" x2="299.4" y2="214.8" stroke="url(#rung)" stroke-width="8" stroke-linecap="round" opacity="0.76"/>
    <line x1="276.6" y1="235.4" x2="235.4" y2="235.4" stroke="url(#rung)" stroke-width="8" stroke-linecap="round" opacity="0.55"/>
    <line x1="314.0" y1="256.0" x2="198.0" y2="256.0" stroke="url(#rung)" stroke-width="8" stroke-linecap="round" opacity="0.90"/>
    <line x1="276.6" y1="276.6" x2="235.4" y2="276.6" stroke="url(#rung)" stroke-width="8" stroke-linecap="round" opacity="0.55"/>
    <line x1="212.6" y1="297.2" x2="299.4" y2="297.2" stroke="url(#rung)" stroke-width="8" stroke-linecap="round" opacity="0.76"/>
    <line x1="204.6" y1="317.8" x2="307.4" y2="317.8" stroke="url(#rung)" stroke-width="8" stroke-linecap="round" opacity="0.84"/>
    <line x1="263.0" y1="338.5" x2="249.0" y2="338.5" stroke="url(#rung)" stroke-width="8" stroke-linecap="round" opacity="0.42"/>
    <line x1="312.3" y1="359.1" x2="199.7" y2="359.1" stroke="url(#rung)" stroke-width="8" stroke-linecap="round" opacity="0.88"/>
    <line x1="288.9" y1="379.7" x2="223.1" y2="379.7" stroke="url(#rung)" stroke-width="8" stroke-linecap="round" opacity="0.66"/>
    <circle cx="288.9" cy="132.3" r="7" fill="#ffffff" opacity="0.66"/><circle cx="223.1" cy="132.3" r="7" fill="#ffffff" opacity="0.66"/>
    <circle cx="312.3" cy="152.9" r="7" fill="#ffffff" opacity="0.88"/><circle cx="199.7" cy="152.9" r="7" fill="#ffffff" opacity="0.88"/>
    <circle cx="263.0" cy="173.5" r="7" fill="#ffffff" opacity="0.42"/><circle cx="249.0" cy="173.5" r="7" fill="#ffffff" opacity="0.42"/>
    <circle cx="204.6" cy="194.2" r="7" fill="#ffffff" opacity="0.84"/><circle cx="307.4" cy="194.2" r="7" fill="#ffffff" opacity="0.84"/>
    <circle cx="212.6" cy="214.8" r="7" fill="#ffffff" opacity="0.76"/><circle cx="299.4" cy="214.8" r="7" fill="#ffffff" opacity="0.76"/>
    <circle cx="276.6" cy="235.4" r="7" fill="#ffffff" opacity="0.55"/><circle cx="235.4" cy="235.4" r="7" fill="#ffffff" opacity="0.55"/>
    <circle cx="314.0" cy="256.0" r="7" fill="#ffffff" opacity="0.90"/><circle cx="198.0" cy="256.0" r="7" fill="#ffffff" opacity="0.90"/>
    <circle cx="276.6" cy="276.6" r="7" fill="#ffffff" opacity="0.55"/><circle cx="235.4" cy="276.6" r="7" fill="#ffffff" opacity="0.55"/>
    <circle cx="212.6" cy="297.2" r="7" fill="#ffffff" opacity="0.76"/><circle cx="299.4" cy="297.2" r="7" fill="#ffffff" opacity="0.76"/>
    <circle cx="204.6" cy="317.8" r="7" fill="#ffffff" opacity="0.84"/><circle cx="307.4" cy="317.8" r="7" fill="#ffffff" opacity="0.84"/>
    <circle cx="263.0" cy="338.5" r="7" fill="#ffffff" opacity="0.42"/><circle cx="249.0" cy="338.5" r="7" fill="#ffffff" opacity="0.42"/>
    <circle cx="312.3" cy="359.1" r="7" fill="#ffffff" opacity="0.88"/><circle cx="199.7" cy="359.1" r="7" fill="#ffffff" opacity="0.88"/>
    <circle cx="288.9" cy="379.7" r="7" fill="#ffffff" opacity="0.66"/><circle cx="223.1" cy="379.7" r="7" fill="#ffffff" opacity="0.66"/>
    <path d="M256.0,122.0 L248.4,124.2 L241.0,126.5 L233.8,128.7 L227.0,130.9 L220.7,133.2 L215.0,135.4 L210.0,137.6 L205.8,139.9 L202.4,142.1 L200.0,144.3 L198.5,146.6 L198.0,148.8 L198.5,151.0 L200.0,153.3 L202.4,155.5 L205.8,157.7 L210.0,160.0 L215.0,162.2 L220.7,164.4 L227.0,166.7 L233.8,168.9 L241.0,171.1 L248.4,173.4 L256.0,175.6 L263.6,177.8 L271.0,180.1 L278.2,182.3 L285.0,184.5 L291.3,186.8 L297.0,189.0 L302.0,191.2 L306.2,193.5 L309.6,195.7 L312.0,197.9 L313.5,200.2 L314.0,202.4 L313.5,204.6 L312.0,206.9 L309.6,209.1 L306.2,211.3 L302.0,213.6 L297.0,215.8 L291.3,218.0 L285.0,220.3 L278.2,222.5 L271.0,224.7 L263.6,227.0 L256.0,229.2 L248.4,231.4 L241.0,233.7 L233.8,235.9 L227.0,238.1 L220.7,240.4 L215.0,242.6 L210.0,244.8 L205.8,247.1 L202.4,249.3 L200.0,251.5 L198.5,253.8 L198.0,256.0 L198.5,258.2 L200.0,260.5 L202.4,262.7 L205.8,264.9 L210.0,267.2 L215.0,269.4 L220.7,271.6 L227.0,273.9 L233.8,276.1 L241.0,278.3 L248.4,280.6 L256.0,282.8 L263.6,285.0 L271.0,287.3 L278.2,289.5 L285.0,291.7 L291.3,294.0 L297.0,296.2 L302.0,298.4 L306.2,300.7 L309.6,302.9 L312.0,305.1 L313.5,307.4 L314.0,309.6 L313.5,311.8 L312.0,314.1 L309.6,316.3 L306.2,318.5 L302.0,320.8 L297.0,323.0 L291.3,325.2 L285.0,327.5 L278.2,329.7 L271.0,331.9 L263.6,334.2 L256.0,336.4 L248.4,338.6 L241.0,340.9 L233.8,343.1 L227.0,345.3 L220.7,347.6 L215.0,349.8 L210.0,352.0 L205.8,354.3 L202.4,356.5 L200.0,358.7 L198.5,361.0 L198.0,363.2 L198.5,365.4 L200.0,367.7 L202.4,369.9 L205.8,372.1 L210.0,374.4 L215.0,376.6 L220.7,378.8 L227.0,381.1 L233.8,383.3 L241.0,385.5 L248.4,387.8 L256.0,390.0" fill="none" stroke="url(#strand)" stroke-width="15" stroke-linecap="round" opacity="0.78"/>
    <path d="M256.0,122.0 L263.6,124.2 L271.0,126.5 L278.2,128.7 L285.0,130.9 L291.3,133.2 L297.0,135.4 L302.0,137.6 L306.2,139.9 L309.6,142.1 L312.0,144.3 L313.5,146.6 L314.0,148.8 L313.5,151.0 L312.0,153.3 L309.6,155.5 L306.2,157.7 L302.0,160.0 L297.0,162.2 L291.3,164.4 L285.0,166.7 L278.2,168.9 L271.0,171.1 L263.6,173.4 L256.0,175.6 L248.4,177.8 L241.0,180.1 L233.8,182.3 L227.0,184.5 L220.7,186.8 L215.0,189.0 L210.0,191.2 L205.8,193.5 L202.4,195.7 L200.0,197.9 L198.5,200.2 L198.0,202.4 L198.5,204.6 L200.0,206.9 L202.4,209.1 L205.8,211.3 L210.0,213.6 L215.0,215.8 L220.7,218.0 L227.0,220.3 L233.8,222.5 L241.0,224.7 L248.4,227.0 L256.0,229.2 L263.6,231.4 L271.0,233.7 L278.2,235.9 L285.0,238.1 L291.3,240.4 L297.0,242.6 L302.0,244.8 L306.2,247.1 L309.6,249.3 L312.0,251.5 L313.5,253.8 L314.0,256.0 L313.5,258.2 L312.0,260.5 L309.6,262.7 L306.2,264.9 L302.0,267.2 L297.0,269.4 L291.3,271.6 L285.0,273.9 L278.2,276.1 L271.0,278.3 L263.6,280.6 L256.0,282.8 L248.4,285.0 L241.0,287.3 L233.8,289.5 L227.0,291.7 L220.7,294.0 L215.0,296.2 L210.0,298.4 L205.8,300.7 L202.4,302.9 L200.0,305.1 L198.5,307.4 L198.0,309.6 L198.5,311.8 L200.0,314.1 L202.4,316.3 L205.8,318.5 L210.0,320.8 L215.0,323.0 L220.7,325.2 L227.0,327.5 L233.8,329.7 L241.0,331.9 L248.4,334.2 L256.0,336.4 L263.6,338.6 L271.0,340.9 L278.2,343.1 L285.0,345.3 L291.3,347.6 L297.0,349.8 L302.0,352.0 L306.2,354.3 L309.6,356.5 L312.0,358.7 L313.5,361.0 L314.0,363.2 L313.5,365.4 L312.0,367.7 L309.6,369.9 L306.2,372.1 L302.0,374.4 L297.0,376.6 L291.3,378.8 L285.0,381.1 L278.2,383.3 L271.0,385.5 L263.6,387.8 L256.0,390.0" fill="none" stroke="url(#strand)" stroke-width="16" stroke-linecap="round"/>
  </g>
</svg>